<svg id="Layer_1" enable-background="new 0 0 510 510" height="30" viewBox="0 0 510 510" width="30" xmlns="http://www.w3.org/2000/svg"><g><path d="m330 120v-30h60v-45c0-24.813-20.187-45-45-45h-125c-22.056 0-40 17.944-40 40v80h-105v390h360v-390zm30-75v15h-30v-15c.826-19.905 29.182-19.889 30 0zm-140-15h80v150h-90v-140c0-5.514 4.486-10 10-10zm185 450h-300v-330h75v30h-45v30h240v-30h-45v-30h75z"/><path d="m135 300h165v30h-165z"/><path d="m135 240h165v30h-165z"/><path d="m330 300h45v30h-45z"/><path d="m135 360h165v30h-165z"/><path d="m330 360h45v30h-45z"/><path d="m135 420h240v30h-240z"/><path d="m330 240h45v30h-45z"/></g></svg>